<?xml version="1.0" encoding="UTF-8"?>
<svg width="12px" height="12px" viewBox="0 0 12 12" version="1.1" xmlns="http://www.w3.org/2000/svg" xmlns:xlink="http://www.w3.org/1999/xlink">
    <title>Icon/Cancel</title>
    <g id="🕹-Symbols" stroke="none" stroke-width="1" fill="none" fill-rule="evenodd">
        <g id="Toaster" transform="translate(-385.000000, -22.000000)" fill="#DEDDDE">
            <g id="Icon/Cancel" transform="translate(379.000000, 16.000000)">
                <path d="M12,4 C12.4558541,4 12.8315619,4.34314684 12.8829087,4.78522567 L12.8888889,4.88888889 L12.8888889,11.1111111 L19.1111111,11.1111111 C19.6020309,11.1111111 20,11.5090802 20,12 C20,12.4558541 19.6568532,12.8315619 19.2147743,12.8829087 L19.1111111,12.8888889 L12.8888889,12.8888889 L12.8888889,19.1111111 C12.8888889,19.6020309 12.4909198,20 12,20 C11.5441459,20 11.1684381,19.6568532 11.1170913,19.2147743 L11.1111111,19.1111111 L11.1111111,12.8888889 L4.88888889,12.8888889 C4.39796911,12.8888889 4,12.4909198 4,12 C4,11.5441459 4.34314684,11.1684381 4.78522567,11.1170913 L4.88888889,11.1111111 L11.1111111,11.1111111 L11.1111111,4.88888889 C11.1111111,4.39796911 11.5090802,4 12,4 Z" id="Path" transform="translate(12.000000, 12.000000) rotate(-45.000000) translate(-12.000000, -12.000000) "></path>
            </g>
        </g>
    </g>
</svg>