<svg xmlns="http://www.w3.org/2000/svg" width="160" height="160" viewBox="0 0 160 160">
    <path fill="#1B05A1" fill-rule="evenodd" d="M70.261 43.257l.25.244 46.285 46.285c1.175 1.175 2.127 2.554 2.808 4.07 3.062 6.806.114 14.79-6.585 17.991l-.293.136-89.389 40.21c-3.75 1.687-8.059 1.602-11.739-.232-6.679-3.328-9.452-11.371-6.299-18.09l.143-.296L48.545 47.08c.66-1.324 1.53-2.533 2.577-3.58 5.271-5.271 13.768-5.352 19.139-.243zm-44.68 70.395l-11.958 24c-1.126 2.259-.207 5.003 2.052 6.129 1.15.573 2.484.633 3.676.176l.237-.099 24.105-10.844-18.112-19.362zm32.004-63.688c-.28.279-.52.592-.719.933l-.14.26-26.795 53.766 22.571 24.128 56.474-25.403c2.302-1.036 3.328-3.74 2.293-6.043-.19-.42-.441-.81-.747-1.155l-.19-.201-46.284-46.285c-1.785-1.785-4.679-1.785-6.463 0zm98.808 10.086c1.039 1.988.47 4.39-1.24 5.72l-.695.446-24.743 12.926c-2.237 1.17-4.998.303-6.166-1.934-1.04-1.989-.47-4.391 1.24-5.721l.694-.446 24.743-12.926c2.237-1.168 4.998-.302 6.167 1.935zm-24.914-27.616c1.586 1.587 1.763 4.05.529 5.83l-.529.633-20.037 20.037c-1.785 1.785-4.678 1.785-6.463 0-1.587-1.586-1.763-4.049-.529-5.83l.529-.633 20.037-20.037c1.785-1.785 4.678-1.785 6.463 0zM103.863 7.52c2.172 1.135 3.051 3.769 2.033 5.968l-.098.199L92.872 38.43l-.446.694c-1.33 1.71-3.732 2.28-5.72 1.24-2.172-1.134-3.052-3.768-2.033-5.967l.098-.2L97.697 9.456l.445-.694c1.33-1.71 3.733-2.28 5.721-1.24z"/>
</svg>
